{
	"asset":{
		"generator":"Khronos glTF Blender I/O v3.6.27",
		"version":"2.0"
	},
	"scene":0,
	"scenes":[
		{
			"name":"Scene",
			"nodes":[
				2
			]
		}
	],
	"nodes":[
		{
			"mesh":0,
			"name":"Object_2",
			"scale":[
				3,
				3.000000238418579,
				3.000000238418579
			],
			"translation":[
				2.8653953075408936,
				-9.506606101989746,
				-66.83930969238281
			]
		},
		{
			"children":[
				0
			],
			"name":"H2O.obj.cleaner.materialmerger.gles"
		},
		{
			"children":[
				1
			],
			"name":"Sketchfab_model",
			"rotation":[
				-0.70710688829422,
				0,
				0,
				0.7071066498756409
			],
			"scale":[
				0.014697331003844738,
				0.014697332866489887,
				0.014697332866489887
			]
		}
	],
	"materials":[
		{
			"doubleSided":true,
			"name":"Material__28",
			"pbrMetallicRoughness":{
				"baseColorFactor":[
					0.14430706202983856,
					0.24768787622451782,
					1,
					1
				],
				"metallicFactor":0,
				"roughnessFactor":0.4000000059604645
			}
		}
	],
	"meshes":[
		{
			"name":"Object_0",
			"primitives":[
				{
					"attributes":{
						"POSITION":0,
						"NORMAL":1,
						"TEXCOORD_0":2
					},
					"indices":3,
					"material":0
				}
			]
		}
	],
	"accessors":[
		{
			"bufferView":0,
			"componentType":5126,
			"count":4069,
			"max":[
				10.826199531555176,
				10.786600112915039,
				34.499298095703125
			],
			"min":[
				-10.765399932861328,
				-10.813400268554688,
				12.907699584960938
			],
			"type":"VEC3"
		},
		{
			"bufferView":1,
			"componentType":5126,
			"count":4069,
			"type":"VEC3"
		},
		{
			"bufferView":2,
			"componentType":5126,
			"count":4069,
			"type":"VEC2"
		},
		{
			"bufferView":3,
			"componentType":5123,
			"count":24000,
			"type":"SCALAR"
		}
	],
	"bufferViews":[
		{
			"buffer":0,
			"byteLength":48828,
			"byteOffset":0,
			"target":34962
		},
		{
			"buffer":0,
			"byteLength":48828,
			"byteOffset":48828,
			"target":34962
		},
		{
			"buffer":0,
			"byteLength":32552,
			"byteOffset":97656,
			"target":34962
		},
		{
			"buffer":0,
			"byteLength":48000,
			"byteOffset":130208,
			"target":34963
		}
	],
	"buffers":[
		{
			"byteLength":178208,
			"uri":"data:application/octet-stream;base64,"
		}
	]
}
